<svg data-name="Layer 1" xmlns="http://www.w3.org/2000/svg" width="970" height="796" viewBox="0 0 970 796">
  <circle cx="917" cy="200" r="53" fill="#ccc" opacity=".3"/>
  <circle cx="917" cy="200" r="30" fill="#3b82f6"/>
  <circle cx="882" cy="53" r="53" fill="#ccc" opacity=".3"/>
  <circle cx="882" cy="53" r="30" fill="#3b82f6"/>
  <circle cx="53" cy="253" r="53" fill="#ccc" opacity=".3"/>
  <circle cx="53" cy="253" r="30" fill="#3b82f6"/>
  <circle cx="100" cy="665" r="53" fill="#ccc" opacity=".3"/>
  <circle cx="100" cy="665" r="30" fill="#3b82f6"/>
  <circle cx="172" cy="100" r="53" fill="#ccc" opacity=".3"/>
  <circle cx="172" cy="100" r="30" fill="#3b82f6"/>
  <path d="M868 431c0 178.34-127.91 326.81-297 358.67l-2 .37q-15.77 2.9-32 4.39c-.67.07-1.33.13-2 .18q-15.81 1.38-32 1.39l-2-.01q-16.17-.07-32-1.56c-.67-.05-1.33-.12-2-.19q-16.22-1.57-32-4.57l-2-.38C264.9 756.64 138 608.64 138 431c0-201.58 163.42-365 365-365s365 163.42 365 365z" fill="#3f3d56"/>
  <path fill="#3b82f6" d="M570 274.5h2V571h-2zM570 147.4h2v87.47h-2zM433 138.27h2V571h-2zM467 100h2v97.46h-2zM467 244h2v296.64h-2zM469 586.75v207.68c-.67-.05-1.33-.12-2-.19V586.75zM501 68h2v275.35h-2zM503 381.52V796l-2-.01V381.52zM535 100h2v382h-2zM535 523h2v214.17h-2zM537 782.53v11.9c-.67.07-1.33.13-2 .18v-12.08zM571 623v166.67l-2 .37V623zM435 623v166.67l-2-.38V623zM399 177h2v62.41h-2zM399 286.28h2V571h-2zM365 200h2v371h-2zM331 230h2v120.91h-2zM331 390.97h2V571h-2zM297 262h2v201.54h-2zM297 501h2v70h-2zM263 292h2v67.6h-2zM263 403.82h2V571h-2zM229 308h2v263h-2zM195 380h2v86.94h-2zM195 506.62h2V571h-2zM590.38 177h1.04v377h-1.04zM637 200h2v59.44h-2zM637 299.13h2V571h-2zM671 257h2v35h-2zM671 331.25h2v173.86h-2zM671 540.64h2V571h-2zM705 262h2v309h-2zM739 292h2v98.97h-2zM739 428.39h2V571h-2zM773 308h2v263h-2z"/>
  <path d="M434 624a10 10 0 1110-10 10.01 10.01 0 01-10 10zm0-18a8 8 0 108 8 8 8 0 00-8-8zM468 572a10 10 0 1110-10 10.01 10.01 0 01-10 10zm0-18a8 8 0 108 8 8 8 0 00-8-8zM571 624a10 10 0 1110-10 10.01 10.01 0 01-10 10zm0-18a8 8 0 108 8 8 8 0 00-8-8zM536 749a10 10 0 1010 10 10.02 10.02 0 00-10-10zm0 18a8 8 0 118-8 8.01 8.01 0 01-8 8zM536 511a10 10 0 1110-10 10.01 10.01 0 01-10 10zm0-18a8 8 0 108 8 8 8 0 00-8-8zM502 372a10 10 0 1110-10 10.01 10.01 0 01-10 10zM570 263a10 10 0 1110-10 10.01 10.01 0 01-10 10zm0-18a8 8 0 108 8 8 8 0 00-8-8zM332 381a10 10 0 1110-10 10.01 10.01 0 01-10 10zm0-18a8 8 0 108 8 8 8 0 00-8-8zM264 390a10 10 0 1110-10 10.01 10.01 0 01-10 10zm0-18a8 8 0 108 8 8 8 0 00-8-8zM298 492a10 10 0 1110-10 10.01 10.01 0 01-10 10zM571 148a10 10 0 1110-10 10.01 10.01 0 01-10 10zm0-18a8 8 0 108 8 8 8 0 00-8-8zM400 272a10 10 0 1110-10 10.01 10.01 0 01-10 10zm0-18a8 8 0 108 8 8 8 0 00-8-8zM366 201a10 10 0 1110-10 10.01 10.01 0 01-10 10zm0-18a8 8 0 108 8 8 8 0 00-8-8zM196 497a10 10 0 1110-10 10.01 10.01 0 01-10 10zm0-18a8 8 0 108 8 8 8 0 00-8-8zM804 380h2v86.94h-2zM804 506.62h2V571h-2zM805 497a10 10 0 1110-10 10.01 10.01 0 01-10 10zm0-18a8 8 0 108 8 8 8 0 00-8-8zM740 418a10 10 0 1110-10 10.01 10.01 0 01-10 10zm0-18a8 8 0 108 8 8 8 0 00-8-8zM672 533a10 10 0 1110-10 10.01 10.01 0 01-10 10zm0-18a8 8 0 108 8 8 8 0 00-8-8zM468 231a10 10 0 1110-10 10.01 10.01 0 01-10 10zM672 322a10 10 0 1110-10 10.01 10.01 0 01-10 10zm0-18a8 8 0 108 8 8 8 0 00-8-8zM740 293a10 10 0 1110-10 10.01 10.01 0 01-10 10zM638 288a10 10 0 1110-10 10.01 10.01 0 01-10 10z" fill="#3b82f6"/>
  <path fill="#2f2e41" d="M918 288.02L738.98 285l.04-2L916 285.98V200h2v88.02zM638.92 278.39l-1.84-.78L731.33 52H882v2H732.67l-93.75 224.39zM503 363H52V254h2v107h449v2zM468 222H169V100h2v120h297v2zM299 666H100v-2h197V481h2v185z"/>
</svg>